<svg version="1.2" xmlns="http://www.w3.org/2000/svg" viewBox="0 0 1597 1597" width="1597" height="1597">
	<title>Proyecto nuevo</title>
	<style>
		.s0 { fill: none;stroke: #ff865b;stroke-linecap: round;stroke-linejoin: round;stroke-width: 28 } 
		.s1 { fill: #ff865b } 
		.s2 { fill: #bd6444 } 
	</style>
	<path id="Capa 1" class="s0" d="m190 1364l801 177c0 0 237.6-466-54-690.3-117-90-477-191.7-429-753 0 0 813 27.6 900-41.7 0 0 39 734.7-570 820-336.7 47.2-492 176.3-648 488z"/>
	<path id="Capa 2" class="s1" d="m256.1 1337c0 0 131.6-421.2 677.5-436 222.6 191.8 34 598.1 34 598.1z"/>
	<path id="Capa 3 copy" class="s2" d="m948 812c0 0-264-131.9-351-326 0 0 214.6 50 299-18.3 75.4-61 167.5-85.5 238.5-36.6 114.2 78.8 178.3-1.8 178.3-1.8 0 0-99.1 300.2-364.8 382.7z"/>
	<path id="Capa 3" class="s1" d="m948 812c0 0-243-126.6-335.4-293.5 0 0 116.5-1.8 209.1-58.4 37.5-22.9 165.7-56.2 236.7-21 70.9 35.2 254.4-9.8 254.4-9.8 0 0-99.1 300.2-364.8 382.7z"/>
</svg>